<svg xmlns="http://www.w3.org/2000/svg" fill="#FFF" viewBox="0 0 15 9">
  <path d="M14.760242,0.752209222 L14.2688965,0.249621473 C14.1142611,0.0926634549 13.9085277,0.00619408121 13.6886479,0.00619408121 C13.46889,0.00619408121 13.2629127,0.0926634549 13.1082773,0.249621473 L7.50335369,5.94346869 L1.8919666,0.24330351 C1.7375751,0.0863454921 1.53159782,0 1.31183993,0 C1.09208205,0 0.885982813,0.0863454921 0.731469362,0.24330351 L0.240001951,0.742794219 C-0.0800006504,1.06761184 -0.0800006504,1.59671025 0.240001951,1.92152787 L6.92103188,8.73266345 C7.07542338,8.88949759 7.28115676,9 7.50286588,9 L7.50542687,9 C7.72530671,9 7.93104009,8.88937371 8.08543159,8.73266345 L14.760242,1.93998624 C14.9148774,1.7831521 14.9997561,1.56784584 15,1.34461115 C15,1.12125258 14.9148774,0.908919477 14.760242,0.752209222 Z"/>
</svg>
