<svg xmlns="http://www.w3.org/2000/svg" width="25" height="25" viewBox="0 0 25 25">
  <path fill="#FFF"
    d="M1334.54167,29.2916667 L1334.54167,22.5 L1336.41667,22.5 L1336.66667,20.1666667 L1334.54167,20.1666667 L1334.54167,19 C1334.54167,18.375 1334.58333,18.0416667 1335.45833,18.0416667 L1336.625,18.0416667 L1336.625,15.7083333 L1334.75,15.7083333 C1332.5,15.7083333 1331.70833,16.8333333 1331.70833,18.75 L1331.70833,20.1666667 L1330.29167,20.1666667 L1330.29167,22.5 L1331.70833,22.5 L1331.70833,29.2916667 L1331.75,29.2916667 L1334.54167,29.2916667 Z M1333.5,35 C1326.58333,35 1321,29.4166667 1321,22.5 C1321,15.5833333 1326.58333,10 1333.5,10 C1340.41667,10 1346,15.5833333 1346,22.5 C1346,29.4166667 1340.41667,35 1333.5,35 Z" transform="translate(-1321 -10)"/>
</svg>
