<svg xmlns="http://www.w3.org/2000/svg" width="25" height="25" viewBox="0 0 25 25">
  <path fill="#FFF"
    d="M20.6318681,0.137362637 L4.09340659,0.137362637 C1.84065934,0.137362637 0,1.97802198 0,4.23076923 L0,20.7967033 C0,23.0494505 1.84065934,24.8901099 4.09340659,24.8901099 L20.6593407,24.8901099 C22.9120879,24.8901099 24.7527473,23.0494505 24.7527473,20.7967033 L24.7527473,4.23076923 C24.7252747,1.97802198 22.8846154,0.137362637 20.6318681,0.137362637 Z M22.0054945,4.23076923 L22.0054945,6.4010989 C22.0054945,7.08791209 21.456044,7.63736264 20.7692308,7.63736264 L18.489011,7.63736264 C17.8021978,7.63736264 17.2527473,7.08791209 17.2527473,6.4010989 L17.2527473,4.12087912 C17.2527473,3.43406593 17.8021978,2.88461538 18.489011,2.88461538 L20.7692308,2.88461538 C21.456044,2.88461538 22.0054945,3.43406593 22.0054945,4.12087912 L22.0054945,4.23076923 Z M17.0604396,12.5 C17.0604396,15.1098901 14.9450549,17.1978022 12.3626374,17.1978022 C9.75274725,17.1978022 7.66483516,15.0824176 7.66483516,12.5 C7.66483516,9.91758242 9.78021978,7.8021978 12.3626374,7.8021978 C14.9450549,7.8021978 17.0604396,9.89010989 17.0604396,12.5 Z M20.6318681,22.1428571 L4.09340659,22.1428571 C3.35164835,22.1428571 2.71978022,21.5384615 2.71978022,20.7692308 L2.71978022,9.97252747 L5.35714286,9.97252747 C5.08241758,10.7692308 4.91758242,11.5934066 4.91758242,12.5 C4.91758242,16.5934066 8.24175824,19.9175824 12.3626374,19.9175824 C16.456044,19.9175824 19.7802198,16.5934066 19.7802198,12.5 C19.7802198,11.6208791 19.6153846,10.7692308 19.3406593,9.97252747 L21.978022,9.97252747 L21.978022,20.7692308 C22.0054945,21.5384615 21.4010989,22.1428571 20.6318681,22.1428571 Z"/>
</svg>
